<?xml version="1.0" encoding="utf-8"?>
<!-- Generator: Adobe Illustrator 17.0.0, SVG Export Plug-In . SVG Version: 6.00 Build 0)  -->
<!DOCTYPE svg PUBLIC "-//W3C//DTD SVG 1.1//EN" "http://www.w3.org/Graphics/SVG/1.1/DTD/svg11.dtd">
<svg version="1.1" id="Layer_1" xmlns="http://www.w3.org/2000/svg" xmlns:xlink="http://www.w3.org/1999/xlink" x="0px" y="0px"
	 width="200px" height="200px" viewBox="0 0 200 200" enable-background="new 0 0 200 200" xml:space="preserve">
<g>
	<rect x="0" y="0" fill="#3E3E3F" width="200" height="200"/>
	<polyline fill="#EA2227" points="200,200 0,200 0,0 	"/>
	<path fill="#FFFFFF" d="M147.793,117.496c0,0,36.101-49.223,13.66-68.518s-52.688,14.367-50.737,27.539
		c0.976-0.976,21.465-5.854,19.026,7.806s-16.099,36.589-24.393,36.101S92.178,78.468,90.226,65.783s-9.269-25.319-26.344-16.806
		S31.196,76.516,31.196,76.516l6.342,8.293c0,0,13.66-14.636,19.514,1.951s16.099,58.542,20.002,64.884s15.611,21.953,35.125,4.879
		S147.793,117.496,147.793,117.496z"/>
</g>
</svg>
