<?xml version="1.0" encoding="utf-8"?>
<!-- Generator: Adobe Illustrator 17.0.0, SVG Export Plug-In . SVG Version: 6.00 Build 0)  -->
<!DOCTYPE svg PUBLIC "-//W3C//DTD SVG 1.1//EN" "http://www.w3.org/Graphics/SVG/1.1/DTD/svg11.dtd">
<svg version="1.1" id="Layer_1" xmlns="http://www.w3.org/2000/svg" xmlns:xlink="http://www.w3.org/1999/xlink" x="0px" y="0px"
	 width="640px" height="480px" viewBox="0 0 640 480" enable-background="new 0 0 640 480" xml:space="preserve">
<g>
	<polygon fill="#EA2227" points="630.34,47.857 9.881,47.857 9.881,373.428 405.446,373.428 442.072,431.807 474.336,373.428 
		630.34,373.428 	"/>
	<g>
		<path fill="#FFFFFF" d="M57.9,113.89c0-0.928,0.834-1.668,1.762-1.668h2.312l40.191,46.486h0.095v-43.796
			c0-0.928,0.739-1.762,1.753-1.762h5.93c0.928,0,1.757,0.834,1.757,1.762v62.316c0,0.928-0.829,1.667-1.757,1.667h-2.406
			l-40.191-47.784h-0.095v45.098c0,0.924-0.739,1.757-1.757,1.757h-5.831c-0.928,0-1.762-0.834-1.762-1.757V113.89z"/>
		<path fill="#FFFFFF" d="M123.044,175.562l28.43-62.316c0.275-0.559,1.108-1.023,1.572-1.023h0.924
			c0.464,0,1.297,0.464,1.577,1.023l28.24,62.316c0.559,1.203-0.185,2.406-1.573,2.406h-5.836c-1.108,0-1.762-0.55-2.132-1.383
			l-5.741-12.69H138.23c-1.852,4.259-3.799,8.427-5.651,12.69c-0.279,0.645-1.019,1.383-2.127,1.383h-5.836
			C123.229,177.968,122.486,176.765,123.044,175.562z M164.992,155.933l-11.392-25.374h-0.464l-11.297,25.374H164.992z"/>
		<path fill="#FFFFFF" d="M200.594,121.853h-15.092c-1.023,0-1.762-0.829-1.762-1.757v-5.182c0-0.928,0.739-1.762,1.762-1.762
			h39.817c1.014,0,1.757,0.834,1.757,1.762v5.182c0,0.928-0.744,1.757-1.757,1.757h-15.091v54.358c0,0.924-0.834,1.757-1.762,1.757
			h-6.111c-0.928,0-1.762-0.834-1.762-1.757V121.853z"/>
		<path fill="#FFFFFF" d="M240.411,114.913c0-0.928,0.833-1.762,1.762-1.762h6.201c1.018,0,1.757,0.834,1.757,1.762v38.244
			c0,9.256,5.93,16.474,15.375,16.474c9.54,0,15.555-7.124,15.555-16.294v-38.424c0-0.928,0.739-1.762,1.762-1.762h6.2
			c0.928,0,1.762,0.834,1.762,1.762v38.889c0,14.077-10.653,25.095-25.28,25.095c-14.542,0-25.095-11.018-25.095-25.095V114.913z"/>
		<path fill="#FFFFFF" d="M307.913,114.913c0-0.928,0.739-1.762,1.757-1.762h25.19c11.112,0,20.188,8.796,20.188,19.819
			c0,8.516-5.651,15.555-13.708,18.795l12.685,23.522c0.653,1.203,0,2.681-1.572,2.681h-7.224c-0.744,0-1.293-0.464-1.483-0.834
			l-12.315-24.536h-13.983v23.613c0,0.924-0.834,1.757-1.762,1.757h-6.016c-1.018,0-1.757-0.834-1.757-1.757V114.913z
			 M334.122,144.636c6.015,0,11.297-5.092,11.297-11.486c0-6.016-5.282-11.018-11.297-11.018h-16.484v22.504H334.122z"/>
		<path fill="#FFFFFF" d="M369.491,114.913c0-0.928,0.744-1.762,1.757-1.762h37.041c1.023,0,1.762,0.834,1.762,1.762v5.182
			c0,0.928-0.739,1.757-1.762,1.757h-29.263v18.895h24.725c0.928,0,1.757,0.833,1.757,1.757v5.187c0,1.014-0.829,1.762-1.757,1.762
			h-24.725v19.904h29.263c1.023,0,1.762,0.834,1.762,1.762v5.092c0,0.924-0.739,1.757-1.762,1.757h-37.041
			c-1.014,0-1.757-0.834-1.757-1.757V114.913z"/>
		<path fill="#FFFFFF" d="M490.339,112.223c18.516,0,33.332,14.911,33.332,33.432s-14.816,33.242-33.332,33.242
			c-18.525,0-33.247-14.721-33.247-33.242S471.813,112.223,490.339,112.223z M490.339,169.632c13.239,0,24.077-10.738,24.077-23.977
			c0-13.149-10.838-24.171-24.077-24.171c-13.149,0-23.987,11.023-23.987,24.171C466.352,158.894,477.19,169.632,490.339,169.632z"
			/>
		<path fill="#FFFFFF" d="M536.905,114.913c0-0.928,0.748-1.762,1.762-1.762h37.041c1.023,0,1.762,0.834,1.762,1.762v5.182
			c0,0.928-0.739,1.757-1.762,1.757h-29.263v21.396h24.725c0.924,0,1.762,0.834,1.762,1.762v5.087c0,0.928-0.838,1.762-1.762,1.762
			h-24.725v24.351c0,0.924-0.829,1.757-1.757,1.757h-6.02c-1.014,0-1.762-0.834-1.762-1.757V114.913z"/>
		<path fill="#FFFFFF" d="M75.222,221.518H60.131c-1.019,0-1.757-0.829-1.757-1.762v-5.182c0-0.928,0.739-1.757,1.757-1.757h39.817
			c1.023,0,1.762,0.829,1.762,1.757v5.182c0,0.933-0.739,1.762-1.762,1.762H84.857v54.358c0,0.919-0.833,1.758-1.762,1.758h-6.111
			c-0.928,0-1.762-0.839-1.762-1.758V221.518z"/>
		<path fill="#FFFFFF" d="M115.873,214.574c0-0.928,0.833-1.757,1.762-1.757h6.11c1.019,0,1.762,0.829,1.762,1.757v25.834h33.891
			v-25.834c0-0.928,0.739-1.757,1.757-1.757h6.11c0.928,0,1.762,0.829,1.762,1.757v61.302c0,0.919-0.834,1.758-1.762,1.758h-6.11
			c-1.019,0-1.757-0.839-1.757-1.758v-26.762h-33.891v26.762c0,0.919-0.744,1.758-1.762,1.758h-6.11
			c-0.929,0-1.762-0.839-1.762-1.758V214.574z"/>
		<path fill="#FFFFFF" d="M189.074,214.574c0-0.928,0.739-1.757,1.757-1.757h37.041c1.019,0,1.757,0.829,1.757,1.757v5.182
			c0,0.933-0.739,1.762-1.757,1.762h-29.259v18.89h24.721c0.929,0,1.757,0.834,1.757,1.762v5.182c0,1.019-0.828,1.762-1.757,1.762
			h-24.721v19.904h29.259c1.019,0,1.757,0.843,1.757,1.767v5.092c0,0.919-0.739,1.758-1.757,1.758h-37.041
			c-1.019,0-1.757-0.839-1.757-1.758V214.574z"/>
		<path fill="#FFFFFF" d="M296.02,214.574c0-0.928,0.739-1.757,1.753-1.757h20.747c11.207,0,19.259,7.403,19.259,17.123
			c0,7.133-5.277,12.23-9.625,14.732c4.902,2.037,11.567,6.574,11.567,15.091c0,10.374-8.517,17.872-20.188,17.872h-21.761
			c-1.014,0-1.753-0.839-1.753-1.758V214.574z M319.447,269.112c5.646,0,9.999-4.348,9.999-10.089c0-5.651-5.376-9.724-11.392-9.724
			H305.37v19.813H319.447z M317.96,240.967c5.931,0,9.54-4.358,9.54-9.909c0-5.646-3.609-9.54-9.54-9.54h-12.495v19.449H317.96z"/>
		<path fill="#FFFFFF" d="M355.693,214.574c0-0.928,0.744-1.757,1.762-1.757h37.041c1.014,0,1.753,0.829,1.753,1.757v5.182
			c0,0.933-0.739,1.762-1.753,1.762h-29.263v18.89h24.726c0.928,0,1.762,0.834,1.762,1.762v5.182c0,1.019-0.834,1.762-1.762,1.762
			h-24.726v19.904h29.263c1.014,0,1.753,0.843,1.753,1.767v5.092c0,0.919-0.739,1.758-1.753,1.758h-37.041
			c-1.018,0-1.762-0.839-1.762-1.758V214.574z"/>
		<path fill="#FFFFFF" d="M470.615,281.825l-28.42,62.316c-0.284,0.554-1.113,1.023-1.577,1.023h-0.928
			c-0.459,0-1.293-0.464-1.573-1.023l-28.245-62.316c-0.554-1.203,0.184-2.411,1.577-2.411h5.831c1.108,0,1.762,0.554,2.131,1.393
			l5.741,12.685h30.277c1.857-4.258,3.799-8.427,5.651-12.685c0.279-0.649,1.018-1.393,2.136-1.393h5.826
			C470.435,279.414,471.174,280.622,470.615,281.825z M428.671,301.454l11.392,25.374h0.464l11.297-25.374H428.671z"/>
		<path fill="#FFFFFF" d="M481.955,268.278c0.834-1.203,1.573-2.591,2.406-3.794c0.833-1.203,2.131-1.577,3.145-0.744
			c0.559,0.464,7.692,6.395,14.821,6.395c6.39,0,10.458-3.894,10.458-8.611c0-5.561-4.813-9.076-13.983-12.874
			c-9.44-3.979-16.848-8.886-16.848-19.629c0-7.228,5.551-17.133,20.278-17.133c9.26,0,16.209,4.817,17.133,5.461
			c0.739,0.464,1.482,1.762,0.554,3.15c-0.744,1.113-1.573,2.411-2.311,3.519c-0.744,1.203-1.947,1.757-3.245,0.924
			c-0.649-0.365-7.129-4.628-12.5-4.628c-7.778,0-10.464,4.907-10.464,8.332c0,5.282,4.069,8.522,11.762,11.667
			c10.738,4.358,19.908,9.45,19.908,20.747c0,9.629-8.611,17.502-20.652,17.502c-11.297,0-18.426-5.926-19.913-7.318
			C481.675,270.505,481.026,269.86,481.955,268.278z"/>
		<path fill="#FFFFFF" d="M550.983,221.518h-15.091c-1.019,0-1.757-0.829-1.757-1.762v-5.182c0-0.928,0.739-1.757,1.757-1.757
			h39.817c1.023,0,1.762,0.829,1.762,1.757v5.182c0,0.933-0.739,1.762-1.762,1.762h-15.091v54.358c0,0.919-0.834,1.758-1.762,1.758
			h-6.11c-0.928,0-1.762-0.839-1.762-1.758V221.518z"/>
	</g>
</g>
</svg>
