<?xml version="1.0" encoding="utf-8"?>
<!-- Generator: Adobe Illustrator 17.0.0, SVG Export Plug-In . SVG Version: 6.00 Build 0)  -->
<!DOCTYPE svg PUBLIC "-//W3C//DTD SVG 1.1//EN" "http://www.w3.org/Graphics/SVG/1.1/DTD/svg11.dtd">
<svg version="1.1" id="Layer_1" xmlns="http://www.w3.org/2000/svg" xmlns:xlink="http://www.w3.org/1999/xlink" x="0px" y="0px"
	 width="200px" height="200px" viewBox="0 0 200 200" enable-background="new 0 0 200 200" xml:space="preserve">
<g>
	<path fill="#3E3E3F" d="M160.226,76.386c0,0,0.221,37.43-18.383,54.485S94.446,172.73,40.848,145.71
		c0-0.221,22.37,4.079,40.31-11.803c0.221,0.065-19.269-0.378-25.249-18.761c0-0.221,7.087,1.107,11.517-0.443
		c0.221,0.221-21.262-5.759-21.262-27.242c0.221,0,7.087,3.544,11.96,3.322c0,0.221-19.49-15.282-8.195-36.545
		c0-0.664,23.256,30.343,56.478,28.35c0.664,0.221-2.658-19.269,9.302-27.021s26.578-8.673,37.209,2.64
		c0.443,0.239,12.182-3.305,17.276-6.848c0.221,0-3.101,10.631-10.853,14.618c0.443,0,9.302-0.221,14.618-3.765
		C173.958,61.989,170.636,69.52,160.226,76.386z"/>
</g>
</svg>
