<?xml version="1.0" encoding="utf-8"?>
<!-- Generator: Adobe Illustrator 17.0.0, SVG Export Plug-In . SVG Version: 6.00 Build 0)  -->
<!DOCTYPE svg PUBLIC "-//W3C//DTD SVG 1.1//EN" "http://www.w3.org/Graphics/SVG/1.1/DTD/svg11.dtd">
<svg version="1.1" id="Layer_1" xmlns="http://www.w3.org/2000/svg" xmlns:xlink="http://www.w3.org/1999/xlink" x="0px" y="0px"
	 width="400px" height="400px" viewBox="0 0 400 400" enable-background="new 0 0 400 400" xml:space="preserve">
<g>
	<path fill="#3E3E3F" d="M140.611,110.671V64.923c0,0,0.832-14.14,15.804-14.14c14.972,0,89.831,0,89.831,0s14.14-0.832,14.14,14.14
		s0,45.747,0,45.747h-14.972V79.895c0,0,0.832-14.14-14.14-14.14s-59.887,0-59.887,0s-15.804-0.832-15.804,14.14s0,30.775,0,30.775
		H140.611z"/>
	<path fill="#BBBDBF" d="M35.392,110.255c0,0-14.556-0.416-14.556,14.556s0,209.606,0,209.606s0.832,15.804,15.804,15.804
		s329.381,0,329.381,0s14.14-0.832,14.14-15.804c0-14.972,0-209.606,0-209.606s0.832-14.972-14.14-14.972
		S35.392,110.255,35.392,110.255z"/>
	<rect x="37" y="126" opacity="0.7" fill="#EA2227" width="327" height="209"/>
	<rect x="79" y="126" opacity="0.5" fill="#3E3E3F" width="4" height="209"/>
	<rect x="322" y="126" opacity="0.5" fill="#3E3E3F" width="4" height="209"/>
	<path opacity="0.7" fill="#FFFFFF" d="M81.555,140.972c0,0-14.972-1.972-14.972-14.972h29.944
		C96.527,126,96.527,141.804,81.555,140.972z"/>
	<path opacity="0.7" fill="#FFFFFF" d="M81.555,319.198c0,0,15.802,2.802,15.802,15.802H65.753
		C65.753,335,65.753,318.32,81.555,319.198z"/>
	<path opacity="0.7" fill="#FFFFFF" d="M322.768,319.198c0,0,15.802,2.802,15.802,15.802h-31.604
		C306.967,335,306.967,318.32,322.768,319.198z"/>
	<path opacity="0.7" fill="#FFFFFF" d="M322.768,140.972c0,0-14.972-1.972-14.972-14.972h29.944
		C337.74,126,337.74,141.804,322.768,140.972z"/>
</g>
</svg>
