<?xml version="1.0" encoding="utf-8"?>
<!-- Generator: Adobe Illustrator 17.0.0, SVG Export Plug-In . SVG Version: 6.00 Build 0)  -->
<!DOCTYPE svg PUBLIC "-//W3C//DTD SVG 1.1//EN" "http://www.w3.org/Graphics/SVG/1.1/DTD/svg11.dtd">
<svg version="1.1" id="Layer_1" xmlns="http://www.w3.org/2000/svg" xmlns:xlink="http://www.w3.org/1999/xlink" x="0px" y="0px"
	 width="400px" height="400px" viewBox="0 0 400 400" enable-background="new 0 0 400 400" xml:space="preserve">
<g>
	<path fill="#3E3E3F" d="M314.894,164.399c-13.602,0-26.326,3.74-37.219,10.231c-8.411-5.012-17.917-8.366-28.073-9.639
		c-13.008-19.842-35.431-32.956-60.928-32.957c-13.286-17.686-34.434-29.128-58.257-29.128c-39.844,0-72.195,32.005-72.792,71.708
		c-21.33,12.699-35.629,35.978-35.629,62.605c0,40.217,32.603,72.82,72.82,72.82c13.602,0,26.326-3.74,37.219-10.231
		c10.893,6.492,23.617,10.231,37.219,10.231c12.935,0,25.073-3.387,35.601-9.301c10.528,5.914,22.666,9.301,35.601,9.301
		c13.602,0,26.326-3.74,37.219-10.231c10.893,6.492,23.617,10.231,37.219,10.231c40.217,0,72.82-32.603,72.82-72.82
		C387.714,197.002,355.112,164.399,314.894,164.399z"/>
	<circle fill="#EA2227" cx="224.273" cy="156.308" r="72.82"/>
	<circle opacity="0.3" fill="#FFFFFF" cx="224.273" cy="154.69" r="68.261"/>
	<path opacity="0.9" fill="#BBBDBF" d="M305.185,170.872c-13.602,0-26.326,3.74-37.219,10.231
		c-8.411-5.012-17.917-8.366-28.073-9.639c-13.008-19.842-35.431-32.956-60.928-32.957c-13.286-17.686-34.434-29.128-58.257-29.128
		c-39.844,0-72.195,32.005-72.792,71.708c-21.33,12.699-35.629,35.978-35.629,62.605c0,40.217,32.603,72.82,72.82,72.82
		c13.602,0,26.326-3.74,37.219-10.231c10.893,6.492,23.617,10.231,37.219,10.231c12.935,0,25.073-3.387,35.601-9.301
		c10.528,5.914,22.666,9.301,35.601,9.301c13.602,0,26.326-3.74,37.219-10.231c10.893,6.492,23.617,10.231,37.219,10.231
		c40.217,0,72.82-32.603,72.82-72.82C378.005,203.474,345.402,170.872,305.185,170.872z"/>
</g>
</svg>
