<?xml version="1.0" encoding="utf-8"?>
<!-- Generator: Adobe Illustrator 17.0.0, SVG Export Plug-In . SVG Version: 6.00 Build 0)  -->
<!DOCTYPE svg PUBLIC "-//W3C//DTD SVG 1.1//EN" "http://www.w3.org/Graphics/SVG/1.1/DTD/svg11.dtd">
<svg version="1.1" id="Layer_1" xmlns="http://www.w3.org/2000/svg" xmlns:xlink="http://www.w3.org/1999/xlink" x="0px" y="0px"
	 width="210.286px" height="400px" viewBox="0 0 210.286 400" enable-background="new 0 0 210.286 400" xml:space="preserve">
<g>
	<polyline opacity="0.2" fill="#EA2227" points="70.915,355.471 122.949,394.497 174.983,355.471 	"/>
	<path fill="#404041" d="M134.371,335.306c0,0,2.869,24.101,0,24.101s-43.325,0-48.49,0s3.443-11.19,20.658-23.241
		S134.371,335.306,134.371,335.306z"/>
	<polygon fill="#6B4041" points="143.472,223.852 137.518,343.913 98.712,343.913 95.269,218.687 	"/>
	<path fill="#404041" d="M154.375,343.913c0,0,2.869,24.101,0,24.101c-2.869,0-43.325,0-48.49,0c-5.165,0,3.443-11.19,20.658-23.241
		S154.375,343.913,154.375,343.913z"/>
	<polygon fill="#8E4041" points="162.408,245.786 155.809,351.66 117.003,351.66 117.003,245.786 	"/>
</g>
</svg>
