<?xml version="1.0" encoding="utf-8"?>
<!-- Generator: Adobe Illustrator 17.0.0, SVG Export Plug-In . SVG Version: 6.00 Build 0)  -->
<!DOCTYPE svg PUBLIC "-//W3C//DTD SVG 1.1//EN" "http://www.w3.org/Graphics/SVG/1.1/DTD/svg11.dtd">
<svg version="1.1" id="Layer_1" xmlns="http://www.w3.org/2000/svg" xmlns:xlink="http://www.w3.org/1999/xlink" x="0px" y="0px"
	 width="210.286px" height="400px" viewBox="0 0 210.286 400" enable-background="new 0 0 210.286 400" xml:space="preserve">
<g>
	<polyline opacity="0.2" fill="#EA2227" points="70.915,355.471 122.949,394.497 174.983,355.471 	"/>
	<path fill="#404041" d="M134.371,335.306c0,0,2.869,24.101,0,24.101s-43.325,0-48.49,0s3.443-11.19,20.658-23.241
		S134.371,335.306,134.371,335.306z"/>
	<polygon fill="#6B4041" points="143.472,223.852 137.518,343.913 98.712,343.913 95.269,218.687 	"/>
	<path fill="#404041" d="M154.375,343.913c0,0,2.869,24.101,0,24.101c-2.869,0-43.325,0-48.49,0c-5.165,0,3.443-11.19,20.658-23.241
		S154.375,343.913,154.375,343.913z"/>
	<polygon fill="#8E4041" points="162.408,245.786 155.809,351.66 117.003,351.66 117.003,245.786 	"/>
</g>
<g>
	<path fill="#EA6574" d="M67.151,55.271c0,0-42.464,29.266-39.021,32.135c3.443,2.869,22.939,1.382,25.114,33.57
		c0.466,6.903,68.422-15.207,68.422-15.207S176.181,59.861,67.151,55.271z"/>
	<g>
		<path fill="#9F2227" d="M69.249,124.519c0-6.702,4.624-12.136,10.329-12.136h15.924c5.705,0,10.329,5.433,10.329,12.136v72.606
			H69.249V124.519z"/>
		<path fill="#EA6574" d="M95.502,212.601H79.578c-5.705,0-10.329-5.433-10.329-12.136v-3.341h36.582v3.341
			C105.831,207.168,101.207,212.601,95.502,212.601z"/>
	</g>
	<g>
		<path fill="#EA2227" d="M196.265,201.887c0,38.928-9.97,74.193-26.112,99.849H41.617c-16.142-25.655-26.112-60.92-26.112-99.849
			c0-40.251,10.658-76.587,27.777-102.431h125.206C185.608,125.3,196.265,161.636,196.265,201.887z"/>
		<path fill="none" stroke="#D32227" stroke-width="0.8608" stroke-miterlimit="10" d="M193.396,192.419
			c0,0-88.946,23.241-175.883,0.43"/>
	</g>
	<g>
		<g>
			<path fill="#404041" d="M172.953,259.974c0,5.705-4.625,10.329-10.329,10.329H71.383c-5.705,0-10.329-4.624-10.329-10.329
				v-38.704h111.899V259.974z"/>
			<path fill="none" stroke="#404041" stroke-width="0.8608" stroke-miterlimit="10" d="M81.613,235.457
				c0,5.705,4.625,10.329,10.329,10.329h48.661c5.705,0,10.329-4.625,10.329-10.329v-21.184c0-5.705-4.625-10.329-10.329-10.329
				H91.942c-5.705,0-10.329,4.625-10.329,10.329V235.457z"/>
		</g>
	</g>
	<g>
		<path fill="#9F2227" d="M98.712,124.519c0-6.702,4.624-12.136,10.329-12.136h15.924c5.705,0,10.329,5.433,10.329,12.136v72.606
			H98.712V124.519z"/>
		<path fill="#EA6574" d="M124.965,212.601h-15.924c-5.705,0-10.329-5.433-10.329-12.136v-3.341h36.582v3.341
			C135.294,207.168,130.67,212.601,124.965,212.601z"/>
	</g>
	<path fill="#D32227" d="M118.769,9.851c30.801,7.508,69.462,45.419,77.286,182.4L18.818,75.036
		C52.164,27.711,87.968,2.343,118.769,9.851z"/>
	<g>
		
			<line fill="none" stroke="#642227" stroke-width="0.8608" stroke-miterlimit="10" x1="66.003" y1="97.735" x2="66.003" y2="144.216"/>
		<path fill="#642227" d="M64.353,146.153c0,1.07,0.867,1.937,1.937,1.937l0,0c1.07,0,1.937-0.867,1.937-1.937v-3.658
			c0-1.07-0.867-1.937-1.937-1.937l0,0c-1.07,0-1.937,0.867-1.937,1.937V146.153z"/>
	</g>
</g>
</svg>
